# xmcd
#
# Track frame offsets: 
#        150
#        18771
#        38013
#        52612
#        70152
#        85881
#        110598
#        127300
#        146278
#        164981
#
# Disc length: 2451 seconds
#
# Revision: 1
# Processed by: cddbd v1.5.2PL0 Copyright (c) Steve Scherf et al.
# Submitted via: ExactAudioCopyFreeDBPlugin 1.0
#
DISCID=8309910a
DTITLE=VarArt - Eat to the beat Vol. 1
DYEAR=2011
DGENRE=Jazz
TTITLE0=Luis Stahl - Birdfriends
TTITLE1=Jamaram - Time Machine
TTITLE2=French Acoustic - Les Moulins De Mon Coeur
TTITLE3=Waldeck - Memories
TTITLE4=Brenda Boykin - Chocolate and Chili
TTITLE5=Naked Raven - Who's That Girl
TTITLE6=Iain MacKenzie - Cats 'n Girls
TTITLE7=Feliz - The Look Of Love
TTITLE8=Feliz - It Ain't Over Til It's Over
TTITLE9=Friend 'm Fellow - I Still Haven't Found What I'm Looking For
EXTD=YEAR: 2011
EXTT0=
EXTT1=
EXTT2=
EXTT3=
EXTT4=
EXTT5=
EXTT6=
EXTT7=
EXTT8=
EXTT9=
PLAYORDER=
